<svg width="54" height="51" viewBox="0 0 54 51" fill="none" xmlns="http://www.w3.org/2000/svg">
<path d="M53.1064 13.5421C53.1064 6.28962 46.9617 0.407104 39.4306 0.407104C33.9677 0.407104 29.0823 3.56693 26.9257 8.2266C24.7687 3.56693 19.8831 0.407104 14.4205 0.407104C6.88933 0.407104 0.744675 6.28962 0.744675 13.5421C0.744675 18.7855 3.91836 23.3811 8.71593 25.4769C3.91836 27.5728 0.744675 32.1684 0.744675 37.4118C0.744675 44.6642 6.88933 50.5467 14.4205 50.5467C19.8831 50.5467 24.7687 47.3869 26.9257 42.7272C29.0823 47.3869 33.9677 50.5467 39.4306 50.5467C46.9617 50.5467 53.1064 44.6642 53.1064 37.4118C53.1064 32.1684 49.9327 27.5728 45.1351 25.4769C49.9327 23.3811 53.1064 18.7855 53.1064 13.5421ZM42.1297 24.6288C41.729 24.7177 41.4341 25.0651 41.4341 25.4769C41.4341 25.8888 41.729 26.2361 42.1297 26.3251C47.5443 27.5329 51.3133 32.0959 51.3133 37.4118C51.3133 43.6848 45.9923 48.8057 39.4306 48.8057C33.8313 48.8057 28.9454 44.993 27.8026 39.7586C27.7136 39.3499 27.3422 39.0687 26.9257 39.0687C26.5092 39.0687 26.1378 39.3499 26.0488 39.7586C24.9057 44.993 20.0198 48.8057 14.4205 48.8057C7.85874 48.8057 2.53778 43.6848 2.53778 37.4118C2.53778 32.0959 6.30677 27.5329 11.7214 26.3251C12.122 26.2361 12.417 25.8888 12.417 25.4769C12.417 25.0651 12.122 24.7177 11.7214 24.6288C6.30677 23.4209 2.53778 18.8579 2.53778 13.5421C2.53778 7.26907 7.85874 2.1481 14.4205 2.1481C20.0198 2.1481 24.9057 5.9608 26.0488 11.1952C26.1378 11.6039 26.5092 11.8851 26.9257 11.8851C27.3422 11.8851 27.7136 11.6039 27.8026 11.1952C28.9454 5.9608 33.8313 2.1481 39.4306 2.1481C45.9923 2.1481 51.3133 7.26907 51.3133 13.5421C51.3133 18.8579 47.5443 23.4209 42.1297 24.6288Z" fill="#3DB370" stroke="#3DB370" stroke-width="0.5"/>
</svg>
